<?xml version="1.0" standalone="no"?>
<!DOCTYPE svg PUBLIC "-//W3C//DTD SVG 20010904//EN"
 "http://www.w3.org/TR/2001/REC-SVG-20010904/DTD/svg10.dtd">
<svg version="1.0" xmlns="http://www.w3.org/2000/svg"
 width="560.000000pt" height="420.000000pt" viewBox="0 0 560.000000 420.000000"
 preserveAspectRatio="xMidYMid meet">
<metadata>
Created by potrace 1.16, written by Peter Selinger 2001-2019
</metadata>
<g transform="translate(0.000000,420.000000) scale(0.100000,-0.100000)"
fill="#000000" stroke="none">
<path d="M0 2100 l0 -2100 2800 0 2800 0 0 2100 0 2100 -2800 0 -2800 0 0
-2100z m3763 1113 c3 -5 -430 -8 -961 -7 -532 0 -947 -2 -922 -5 l45 -5 -45
-6 c-25 -4 390 -7 922 -6 l967 1 -1 -655 c0 -562 -2 -643 -13 -570 -8 57 -13
72 -14 46 0 -22 -4 -37 -7 -34 -3 3 -5 252 -4 554 1 505 2 548 18 560 16 12
16 13 0 14 -9 0 -19 -6 -21 -12 -3 -8 -6 -6 -6 5 -1 11 6 17 20 17 11 0 17 4
14 11 -4 5 -13 9 -21 7 -12 -3 -15 -90 -17 -586 -1 -360 2 -583 7 -585 6 -2 3
-6 -7 -10 -15 -6 -16 39 -17 585 0 400 3 595 10 603 6 7 21 11 33 9 12 -2 16
-1 8 2 -11 5 -11 8 0 15 8 5 -404 9 -948 9 l-963 0 0 -21 c0 -11 5 -17 10 -14
14 9 12 -8 -2 -24 -18 -20 10 -4 38 21 20 17 56 18 920 15 l899 -2 -902 -3
c-722 -2 -903 -5 -903 -15 0 -7 -12 -20 -27 -29 -16 -10 -22 -18 -15 -18 9 0
12 -119 12 -560 0 -344 4 -560 9 -560 6 0 12 19 14 43 l4 42 1 -43 c2 -35 -2
-45 -16 -49 -16 -4 -17 -12 -11 -74 3 -38 9 -72 13 -76 3 -4 3 26 0 67 -5 51
-4 71 4 67 5 -4 13 -1 15 5 3 7 5 -9 5 -37 0 -43 -1 -46 -8 -20 -7 28 -8 28
-9 5 0 -14 2 -36 6 -49 6 -23 7 -24 15 -5 6 13 6 10 2 -11 -4 -16 -8 -55 -9
-85 -1 -30 -3 -64 -4 -75 -5 -46 -17 19 -14 72 2 36 -1 52 -7 48 -6 -4 -8 -23
-6 -43 l5 -37 -13 40 c-8 22 -14 49 -14 60 0 16 2 15 8 -5 l8 -25 0 25 c0 14
-3 34 -8 45 l-9 20 -2 -20 c-1 -11 -5 0 -10 25 -4 25 -8 339 -8 698 l0 652
964 0 c530 0 966 -3 968 -7z m-793 -385 c-27 -12 -581 -28 -574 -17 2 4 -16 9
-41 11 -36 2 -46 0 -51 -14 -3 -10 -10 -18 -15 -18 -6 0 -7 5 -4 10 3 6 2 10
-4 10 -15 0 -24 -20 -9 -21 96 -5 718 -2 718 4 0 4 -5 7 -11 7 -5 0 -7 5 -4
10 5 8 11 7 21 -1 7 -6 12 -15 9 -19 -3 -5 0 -12 6 -16 8 -4 9 -3 5 4 -4 7 -2
12 4 12 6 0 8 5 5 10 -3 6 0 10 7 11 7 1 2 5 -12 9 -21 7 -22 8 -5 9 11 0 44
-10 73 -24 46 -21 52 -27 43 -43 -11 -21 6 -63 29 -70 12 -4 12 -1 -2 14 -11
13 -14 24 -8 34 5 8 6 19 3 25 -3 5 9 -3 26 -20 51 -46 92 -111 84 -131 -4
-11 -3 -15 4 -11 6 4 15 -11 22 -38 13 -53 15 -155 2 -155 -5 0 -7 -9 -4 -20
3 -12 0 -20 -6 -20 -7 0 -9 -5 -6 -10 9 -14 -47 -98 -62 -93 -6 2 -14 0 -17
-6 -7 -11 14 -51 27 -51 4 0 5 4 2 10 -3 6 1 7 9 4 19 -7 20 -16 4 -32 -6 -6
-9 -15 -5 -19 4 -3 14 2 22 13 15 19 15 19 8 0 -4 -13 -3 -17 5 -12 28 17 95
-169 76 -212 -4 -10 -6 -23 -5 -29 4 -25 -20 -93 -32 -90 -7 1 -12 -9 -12 -26
1 -19 -13 -43 -45 -79 -37 -41 -50 -49 -67 -44 -14 4 -20 12 -16 22 3 7 0 14
-7 14 -6 0 -8 -4 -5 -10 3 -5 0 -10 -7 -11 -10 0 -10 -2 1 -6 10 -4 10 -7 1
-13 -9 -5 -9 -9 -1 -14 6 -4 11 -2 11 3 0 6 5 11 10 11 6 0 10 -4 10 -8 0 -11
-71 -45 -78 -37 -3 3 1 5 9 5 11 0 11 2 -1 10 -21 13 -33 12 -24 -2 5 -8 2 -9
-12 -3 -10 4 -34 7 -52 6 -24 -1 -33 2 -30 11 3 7 16 13 29 13 13 0 52 14 86
31 l61 30 11 -23 c9 -20 14 -22 31 -13 11 6 17 16 14 22 -5 7 -2 8 6 3 8 -5
11 -3 9 4 -3 7 -8 12 -13 11 -5 -1 -13 4 -18 12 -6 9 -7 6 -3 -9 3 -12 2 -24
-3 -27 -6 -3 -12 3 -15 14 -3 14 3 29 19 45 13 13 24 20 24 14 0 -6 5 -7 10
-4 6 4 7 11 4 17 -4 6 -2 8 4 4 6 -3 13 3 17 14 3 11 10 20 15 20 5 0 8 9 7
19 -1 16 -4 18 -15 9 -11 -9 -12 -6 -5 18 13 47 6 207 -9 198 -7 -5 -9 0 -8
21 0 3 -20 22 -44 43 -25 20 -43 43 -41 50 3 7 -1 12 -8 10 -20 -4 -67 12 -67
22 0 5 14 17 31 26 19 9 28 11 24 4 -5 -8 -3 -11 5 -8 7 2 14 11 16 20 1 9 14
33 28 55 15 21 29 55 33 76 4 30 8 35 19 26 8 -6 14 -17 14 -23 0 -6 -4 -5 -9
3 -6 10 -9 2 -8 -22 0 -21 4 -37 7 -37 13 0 27 58 18 74 -6 10 -5 16 2 16 5 0
10 -8 11 -17 0 -12 2 -13 6 -5 3 7 -2 28 -11 46 -9 19 -16 40 -16 48 0 14 -29
59 -30 47 0 -4 7 -25 14 -47 8 -23 11 -44 6 -47 -5 -3 -14 19 -20 49 -6 29
-24 74 -40 100 -16 25 -26 46 -22 46 4 0 -7 9 -24 19 -35 21 -51 41 -34 41 6
0 8 5 5 11 -4 6 -14 8 -22 5 -8 -4 -35 1 -59 9 -35 12 -111 15 -385 15 -317 1
-342 0 -355 -17 -14 -17 -14 -17 -12 1 2 13 -4 20 -19 21 -23 2 -23 2 3 -34
15 -20 36 -44 48 -55 21 -18 21 -25 24 -423 3 -302 1 -408 -8 -418 -7 -8 -10
-25 -6 -38 4 -16 0 -26 -14 -35 -13 -8 -20 -8 -20 -2 0 6 6 13 14 16 19 7 8
44 -13 44 -14 0 -14 -2 -1 -10 12 -8 13 -13 3 -29 -7 -11 -10 -27 -7 -34 3 -8
-2 -17 -10 -20 -9 -4 -13 -13 -10 -22 4 -8 1 -15 -6 -15 -12 0 -11 11 5 55 5
14 4 16 -2 7 -16 -22 -37 11 -23 37 12 23 64 54 74 44 3 -4 6 166 6 376 0 392
-2 415 -38 403 -7 -2 -16 5 -19 17 -3 11 -9 19 -13 16 -13 -8 -32 63 -25 94 6
29 33 59 70 79 14 8 130 11 360 11 255 0 334 -3 315 -11z m-600 -178 c0 -9 -6
-22 -12 -29 -10 -11 -10 -14 0 -18 15 -6 18 -758 2 -768 -6 -3 -9 131 -10 362
0 202 -3 391 -6 419 -5 42 -4 51 10 51 9 0 16 -8 16 -17z m620 -40 c0 -5 -6
-7 -13 -4 -8 3 -14 -2 -14 -10 0 -8 4 -13 8 -11 4 3 18 1 31 -4 20 -9 18 -10
-18 -10 -52 -1 -58 -8 -34 -38 25 -32 34 -81 25 -139 -6 -41 -8 -44 -19 -28
-13 17 -14 16 -25 -4 -14 -26 -14 -52 0 -52 6 0 9 6 6 13 -3 8 -2 19 3 26 5
10 9 9 13 -4 4 -10 -6 -29 -28 -53 -26 -27 -35 -32 -35 -19 0 18 -15 23 -25 8
-3 -5 0 -13 6 -17 16 -10 -11 -25 -33 -18 -11 3 -18 0 -18 -7 0 -9 -17 -10
-64 -6 -66 6 -86 -2 -86 -35 0 -10 5 -18 12 -18 6 0 3 -7 -8 -15 -19 -15 -19
-15 1 -9 15 4 14 2 -5 -11 l-25 -16 25 5 c14 3 34 6 44 6 20 0 20 0 0 16 -18
15 -18 15 0 10 11 -4 50 -12 88 -18 37 -7 68 -15 68 -19 0 -4 -10 -5 -22 -2
-23 5 -23 5 -3 -9 21 -16 55 -20 55 -7 0 4 -6 10 -12 13 -7 3 1 3 17 -1 17 -3
39 -11 50 -17 11 -5 23 -9 27 -8 11 3 55 -60 62 -88 3 -14 3 -19 0 -11 -5 11
-8 11 -16 0 -7 -10 -8 -5 -4 16 6 28 5 29 -9 11 -17 -23 -19 -42 -5 -51 6 -4
8 -10 5 -15 -3 -5 0 -12 6 -15 7 -5 3 -15 -12 -31 -24 -25 -42 -24 -32 3 4 10
2 14 -5 9 -6 -3 -13 -2 -17 4 -3 5 0 10 8 10 24 0 41 28 28 44 -13 16 1 56 19
56 5 0 7 7 3 16 -3 9 -8 12 -12 5 -8 -13 -25 -2 -34 23 -4 10 -10 16 -13 13
-3 -3 -1 -15 6 -26 7 -14 7 -21 0 -21 -5 0 -10 6 -10 14 0 10 -7 12 -22 8 -19
-5 -20 -7 -5 -10 9 -2 17 -7 17 -12 0 -8 -20 -2 -80 24 -8 3 0 4 18 1 20 -3
31 -1 27 5 -3 6 -17 10 -31 10 -13 0 -24 5 -24 10 0 6 -9 10 -20 10 -11 0 -20
7 -20 15 0 10 -11 15 -35 15 -19 0 -35 -5 -35 -11 0 -6 -7 -8 -16 -5 -23 9
-37 -3 -24 -19 15 -18 -19 -38 -41 -24 -12 7 -12 9 0 9 8 0 12 3 8 6 -3 3 -12
2 -19 -2 -7 -5 -19 -9 -27 -11 -7 -1 -19 -7 -25 -13 -8 -8 -6 -10 9 -5 11 3 7
-1 -8 -10 -40 -23 -48 -8 -13 20 37 30 74 39 92 24 8 -7 17 -9 20 -6 3 3 -8
13 -26 22 -18 9 -34 14 -37 11 -9 -9 -38 26 -40 48 -1 12 5 26 14 33 8 6 13
15 12 20 -1 4 7 13 19 18 19 10 18 13 -20 44 -23 19 -37 39 -34 47 3 8 0 14
-6 14 -8 0 -6 6 4 16 12 13 14 22 6 39 -6 14 -6 40 0 74 6 33 6 49 0 43 -5 -5
-13 -40 -18 -78 l-9 -69 3 67 c2 37 10 75 18 87 14 20 16 20 29 5 11 -13 11
-18 2 -21 -18 -6 -16 -23 2 -23 8 0 15 8 15 18 0 10 3 21 6 25 9 9 35 -4 28
-14 -3 -5 -9 -7 -13 -5 -4 3 -8 -23 -9 -57 -3 -72 -12 -91 -12 -24 0 48 -7 56
-28 35 -16 -16 -15 -43 3 -58 11 -9 12 -17 4 -31 -6 -13 -6 -19 1 -19 5 0 10
6 10 13 0 8 4 7 10 -3 8 -12 10 -12 10 -1 0 8 10 -1 23 -20 30 -44 93 -68 137
-52 17 6 28 8 25 3 -3 -4 2 -10 9 -13 10 -4 13 0 11 14 -2 11 0 17 4 15 4 -3
19 17 33 44 19 36 24 59 20 87 -2 21 -5 46 -5 55 -1 9 -4 15 -8 13 -3 -3 -14
4 -24 15 -21 24 -17 25 20 6 41 -21 59 -11 37 22 -9 15 -21 30 -27 34 -5 4 -6
8 -1 8 5 0 17 -7 27 -16 17 -15 19 -14 25 10 6 25 44 39 44 16z m-702 -910
c-1 -16 1 -30 5 -30 28 -1 31 1 17 10 -8 5 -12 11 -9 14 2 3 11 1 19 -4 11 -7
11 -11 1 -24 -17 -20 -40 -21 -47 -1 -4 8 -11 15 -18 15 -6 0 2 -12 18 -26 23
-21 31 -23 44 -12 12 10 14 10 8 1 -6 -10 59 -13 313 -13 210 0 322 4 326 10
5 8 -89 11 -297 10 -166 0 -309 -1 -315 0 -7 0 -13 5 -13 11 0 6 7 8 16 5 9
-4 23 -1 30 5 11 9 14 9 14 0 0 -9 75 -12 288 -11 173 1 297 -3 312 -9 l25
-10 -25 -2 c-21 -1 -19 -3 10 -9 19 -4 -130 -8 -332 -9 -386 -1 -404 1 -432
44 -18 27 -11 38 15 24 16 -8 19 -6 19 16 0 14 3 25 6 25 3 0 4 -13 2 -30z
m-331 -14 c-3 -8 -1 -16 4 -18 6 -2 11 -10 12 -18 2 -8 10 -26 18 -40 49 -77
57 -98 44 -104 -8 -3 -16 -2 -18 2 -2 4 -2 1 0 -7 2 -7 -1 -19 -7 -26 -8 -9
-8 -15 0 -20 5 -3 10 -2 10 4 0 5 9 9 20 8 12 -1 18 -7 16 -14 -3 -7 -1 -15 5
-18 5 -4 7 -18 5 -33 -5 -24 -4 -25 8 -10 12 16 14 16 34 -2 27 -25 36 -25 22
0 -6 11 -16 19 -23 17 -6 -1 -21 18 -33 42 -12 25 -23 38 -26 31 -3 -10 -7
-10 -11 -3 -4 6 0 13 7 16 14 6 35 -17 90 -98 15 -22 28 -38 29 -35 1 3 23
-13 49 -34 26 -22 45 -42 43 -44 -2 -3 -13 1 -22 9 -17 13 -17 13 -3 -5 13
-17 13 -19 0 -14 -8 2 -17 15 -18 28 -3 17 -6 20 -12 9 -5 -7 -12 -10 -17 -6
-4 5 -1 12 6 16 9 6 10 11 3 15 -6 4 -15 -1 -20 -10 -6 -11 -11 -13 -16 -5 -9
14 -36 14 -36 0 0 -6 7 -9 15 -5 8 3 14 0 12 -7 -1 -7 5 -10 13 -9 8 2 12 0 8
-4 -9 -8 10 -34 24 -34 6 0 5 7 -2 15 -8 10 -9 15 -2 15 6 0 15 -7 20 -16 8
-14 15 -15 41 -6 18 6 29 7 26 2 -4 -6 1 -10 9 -10 9 0 16 -5 16 -10 0 -6 6
-9 13 -8 6 2 11 -3 9 -11 -2 -9 3 -11 13 -7 13 4 14 2 5 -14 -8 -14 -8 -20 0
-20 6 0 13 6 16 14 4 11 11 11 38 -2 34 -15 42 -42 16 -50 -7 -3 -10 0 -6 7 8
13 -32 15 -52 2 -11 -7 -11 -9 2 -14 9 -4 16 -2 16 4 0 5 14 2 31 -6 17 -9 38
-14 47 -12 12 3 10 5 -6 6 -13 0 -21 5 -18 10 3 5 16 7 29 4 22 -4 22 -4 2 13
l-20 17 20 -8 c87 -32 128 -45 164 -51 23 -4 41 -11 41 -17 0 -5 13 -7 30 -3
18 3 30 1 30 -5 0 -6 5 -7 11 -3 6 3 24 -3 40 -15 l29 -22 43 25 c23 13 72 29
108 35 36 6 98 22 137 35 40 14 70 21 67 16 -3 -4 8 -13 24 -18 23 -8 32 -7
42 4 10 12 9 13 -7 8 -18 -5 -18 -5 0 10 21 17 41 22 32 7 -8 -12 20 -22 39
-15 8 4 12 10 9 15 -3 5 -9 7 -14 4 -4 -3 -13 2 -20 10 -10 12 -16 12 -45 -2
-19 -9 -32 -20 -29 -25 3 -4 0 -8 -6 -8 -21 0 -4 24 31 43 19 10 49 28 68 40
30 18 34 18 28 4 -3 -9 -2 -17 3 -17 9 0 15 23 11 44 -1 5 5 6 14 3 9 -4 15
-1 15 8 0 17 34 37 45 27 5 -4 5 -2 2 4 -4 7 17 34 48 62 30 27 55 53 55 57 0
4 13 24 28 44 16 20 39 55 52 79 17 30 26 39 33 30 6 -9 7 -7 5 7 -3 11 1 34
8 50 l13 30 -2 -40 c-1 -22 -6 -46 -10 -52 -5 -7 -6 -17 -2 -22 3 -5 -1 -16
-9 -24 -17 -16 -5 -43 14 -32 17 11 8 -5 -48 -80 -57 -76 -65 -85 -56 -62 5
13 2 16 -9 11 -11 -4 -14 0 -12 13 2 10 4 20 4 23 1 3 6 -2 11 -10 7 -12 10
-12 10 -1 0 7 6 11 14 8 11 -4 13 -1 9 10 -4 11 -2 14 5 9 7 -4 12 -2 12 3 0
17 -22 13 -50 -9 -14 -11 -31 -20 -37 -20 -12 0 -17 -13 -14 -34 1 -5 -5 -6
-14 -3 -18 7 -21 -9 -2 -17 6 -4 2 -4 -11 -2 -14 3 -20 0 -15 -6 4 -7 1 -8 -7
-3 -10 6 -12 4 -7 -10 8 -20 -12 -40 -56 -57 -22 -8 -25 -13 -15 -19 10 -7 10
-9 0 -9 -10 0 -10 -3 0 -14 7 -8 17 -12 22 -9 4 3 2 10 -5 15 -11 7 -11 9 1 7
31 -3 42 1 36 16 -7 20 22 47 45 40 11 -4 19 -2 19 4 0 6 -7 11 -15 11 -8 0
-15 5 -15 10 0 14 27 12 34 -2 3 -9 9 -8 20 6 8 10 13 23 10 27 -3 5 0 9 5 9
32 0 -7 -49 -86 -112 -43 -33 -63 -44 -74 -37 -22 14 -35 11 -15 -4 17 -13 17
-14 -5 -29 -45 -29 -91 -50 -84 -38 5 8 3 11 -6 8 -8 -3 -13 -10 -12 -16 2
-10 -154 -72 -182 -72 -19 0 -28 17 -13 26 6 4 13 3 15 -3 4 -12 73 5 84 20 4
5 11 7 16 4 5 -3 15 -2 23 4 13 7 12 9 -2 9 -24 0 -30 1 -56 11 -15 6 -37 4
-65 -6 -23 -8 -50 -15 -59 -15 -10 0 -18 -5 -18 -11 0 -6 7 -8 16 -5 38 15 61
16 84 7 25 -11 25 -11 -5 -9 -40 2 -95 -12 -95 -24 0 -5 9 -7 19 -3 11 3 22 1
26 -5 10 -15 -33 -12 -59 5 -21 14 -27 14 -57 0 -28 -13 -29 -15 -7 -11 14 4
37 2 50 -4 l23 -10 -25 2 c-14 1 -36 0 -50 -1 -20 -1 -22 -3 -10 -11 13 -9 13
-10 0 -10 -8 0 -22 5 -30 10 -13 9 -13 11 0 19 8 6 11 13 7 18 -5 4 -11 3 -15
-3 -4 -6 -20 -14 -36 -18 -24 -6 -27 -4 -22 9 4 13 1 15 -13 10 -11 -3 -23 0
-27 6 -5 9 -2 10 12 5 15 -6 17 -5 7 5 -10 10 -16 10 -25 1 -17 -17 -3 -28 66
-56 40 -16 52 -25 41 -30 -30 -11 -55 -6 -95 19 -22 14 -52 25 -67 25 -24 1
-25 2 -11 11 12 7 24 6 39 -1 11 -7 23 -9 26 -6 13 12 -47 25 -73 16 -34 -13
-67 -13 -59 1 4 6 14 8 22 5 9 -4 22 -1 29 5 8 6 25 8 38 5 14 -3 27 -2 30 2
3 5 -9 9 -26 10 -17 0 -34 6 -38 12 -5 8 -9 7 -13 -4 -4 -9 -13 -16 -22 -16
-21 0 -19 18 3 22 9 2 -7 10 -37 17 -45 11 -55 11 -62 0 -7 -12 -11 -11 -25 3
-16 16 -16 17 7 11 19 -5 22 -3 12 7 -15 16 -39 7 -45 -18 -4 -16 -1 -19 16
-15 17 4 19 3 6 -7 -12 -9 -10 -10 10 -5 14 4 29 11 35 16 11 11 25 12 25 1 0
-5 -12 -13 -27 -20 -27 -11 -26 -11 12 -7 28 3 35 2 25 -5 -12 -8 -12 -10 -1
-10 8 0 11 -3 8 -6 -4 -4 -38 4 -77 16 -51 16 -68 26 -58 32 9 7 4 8 -15 4
-19 -5 -29 -2 -33 9 -3 8 -10 13 -14 10 -17 -11 -58 17 -55 36 4 22 -5 24 -24
7 -11 -11 -12 -10 -6 1 6 11 4 13 -8 8 -23 -9 -31 10 -10 22 23 13 8 14 -17 1
-13 -7 -21 -6 -29 4 -16 19 5 32 24 16 12 -10 15 -10 15 1 0 10 3 10 12 1 18
-18 33 -15 18 3 -7 9 -19 14 -27 11 -7 -3 -13 -2 -13 2 0 5 -16 6 -35 4 -29
-3 -43 2 -79 31 -24 20 -49 50 -56 66 -7 17 -16 28 -21 26 -4 -3 -25 18 -47
46 -40 52 -44 77 -16 100 8 6 14 16 14 21 0 6 -7 5 -15 -2 -10 -9 -15 -9 -15
-1 0 6 5 11 10 11 6 0 10 5 10 11 0 8 -4 8 -15 -1 -8 -6 -13 -21 -12 -32 1
-12 -5 -23 -13 -25 -13 -4 -13 -3 0 6 14 10 12 13 -7 10 -14 -2 -61 111 -56
132 4 15 8 17 14 8 5 -9 11 -5 20 14 13 28 25 38 16 13z"/>
</g>
</svg>
